<svg width="20" height="20" viewBox="0 0 20 20" fill="none" xmlns="http://www.w3.org/2000/svg">
<path d="M16.6668 8.33332C16.6668 13.3333 10.0002 18.3333 10.0002 18.3333C10.0002 18.3333 3.3335 13.3333 3.3335 8.33332C3.3335 6.56521 4.03588 4.86952 5.28612 3.61928C6.53636 2.36904 8.23205 1.66666 10.0002 1.66666C11.7683 1.66666 13.464 2.36904 14.7142 3.61928C15.9645 4.86952 16.6668 6.56521 16.6668 8.33332Z" stroke="#973C00" stroke-width="1.66667" stroke-linecap="round" stroke-linejoin="round"/>
<path d="M10 10.8333C11.3807 10.8333 12.5 9.71406 12.5 8.33334C12.5 6.95263 11.3807 5.83334 10 5.83334C8.61929 5.83334 7.5 6.95263 7.5 8.33334C7.5 9.71406 8.61929 10.8333 10 10.8333Z" stroke="#973C00" stroke-width="1.66667" stroke-linecap="round" stroke-linejoin="round"/>
</svg>
